Coordinates
version=1
nRows=13
nColumns=22
inDegrees=yes

Units are S.I. units (second, meters, Newtons, ...)
If the header above contains a line with 'inDegrees', this indicates whether rotational values are in degrees (yes) or radians (no).

endheader
time	pelvis_tilt	pelvis_list	pelvis_rotation	pelvis_tx	pelvis_ty	pelvis_tz	hip_flexion_r	hip_adduction_r	hip_rotation_r	knee_angle_r	ankle_angle_r	subtalar_angle_r	hip_flexion_l	hip_adduction_l	hip_rotation_l	knee_angle_l	ankle_angle_l	subtalar_angle_l	lumbar_extension	lumbar_bending	lumbar_rotation
      3.22000000	     -0.75298736	      4.58606679	     97.52208750	      0.53040647	      0.92802978	     -0.43006312	      5.25090454	      1.84609498	     -9.29438781	    -17.91487041	     -0.97745003	   -179.46074413	     13.69194176	     -6.01256650	     -6.00103550	    -44.07584626	     16.61959081	      1.74074524	     -6.78844648	     -3.90344889	      3.25951896
      3.23000000	     -0.66514593	      4.45316364	     97.11180131	      0.53112551	      0.92795104	     -0.43337501	      5.09765383	      2.00583597	     -9.02209945	    -17.70023055	     -0.86558718	   -179.52800254	     13.34614818	     -6.06694997	     -5.74329072	    -41.93858647	     17.43219387	      1.56660486	     -6.61961641	     -3.78309534	      3.29037021
      3.24000000	     -0.55513679	      4.32616558	     96.69662961	      0.53181999	      0.92789196	     -0.43661805	      4.91432463	      2.18695709	     -8.76220388	    -17.42883587	     -0.78422200	   -179.58915915	     12.94795094	     -6.14736844	     -5.48037966	    -39.80307015	     18.12429312	      1.36922753	     -6.45412053	     -3.63739235	      3.29383900
      3.25000000	     -0.41831816	      4.19460588	     96.27152869	      0.53250240	      0.92782480	     -0.43977847	      4.72405195	      2.39263810	     -8.50371048	    -17.12315005	     -0.72034471	   -179.63564093	     12.52071297	     -6.25714046	     -5.22041765	    -37.69763071	     18.68289862	      1.16030834	     -6.28278704	     -3.46458712	      3.28254439
      3.26000000	     -0.26488006	      4.04458122	     95.84184188	      0.53314619	      0.92773344	     -0.44287912	      4.54070000	      2.60646305	     -8.27447422	    -16.78625752	     -0.68594627	   -179.66439664	     12.08355634	     -6.38478812	     -4.99352942	    -35.64135001	     19.10951402	      0.96082595	     -6.08488704	     -3.27512741	      3.24940290
      3.27000000	     -0.10442859	      3.90613184	     95.41666473	      0.53372641	      0.92767241	     -0.44589420	      4.32524471	      2.82515476	     -8.02597510	    -16.40658828	     -0.66387557	   -179.67518548	     11.60966713	     -6.50678651	     -4.75479267	    -33.64378688	     19.29709847	      0.75570179	     -5.90303764	     -3.07294880	      3.19106393
      3.28000000	      0.06294512	      3.75546563	     95.00108016	      0.53420943	      0.92758499	     -0.44883123	      4.11726649	      3.03898592	     -7.80106680	    -16.01397497	     -0.64088184	   -179.66080440	     11.13454832	     -6.61736911	     -4.50617607	    -31.72875077	     19.25700363	      0.59839642	     -5.70645172	     -2.85626454	      3.11077415
      3.29000000	      0.22911499	      3.57325995	     94.60343975	      0.53458002	      0.92744113	     -0.45169568	      3.93581194	      3.23709638	     -7.60703263	    -15.60627966	     -0.63503748	   -179.63106862	     10.68934972	     -6.70519840	     -4.24627068	    -29.91749241	     18.95417322	      0.51326211	     -5.47106208	     -2.63657170	      3.00087239
      3.30000000	      0.39286646	      3.39168739	     94.22090904	      0.53481493	      0.92727878	     -0.45447984	      3.75149974	      3.41942626	     -7.43763613	    -15.19359310	     -0.62032968	   -179.58484919	     10.24312373	     -6.76642498	     -3.95764113	    -28.22192361	     18.36050224	      0.48471081	     -5.23605368	     -2.40507614	      2.86817224
      3.31000000	      0.54622061	      3.22592330	     93.85693705	      0.53491782	      0.92712149	     -0.45719091	      3.54756251	      3.58002559	     -7.29219219	    -14.77753258	     -0.60052128	   -179.52086036	      9.77985083	     -6.79644214	     -3.64914071	    -26.64356571	     17.46189350	      0.50692062	     -5.02165186	     -2.17432627	      2.72356583
      3.32000000	      0.68760376	      3.07442834	     93.50880667	      0.53489566	      0.92696800	     -0.45982271	      3.32860005	      3.71711768	     -7.16067269	    -14.36147658	     -0.57506532	   -179.44637766	      9.31018919	     -6.79725023	     -3.32819242	    -25.19792619	     16.25881843	      0.55439601	     -4.82641533	     -1.94668890	      2.55619867
      3.33000000	      0.81371708	      2.92622978	     93.18214070	      0.53474367	      0.92680859	     -0.46239379	      3.10311677	      3.82709163	     -7.04314531	    -13.94052589	     -0.55481205	   -179.37522702	      8.85053866	     -6.77257690	     -3.03318828	    -23.88895742	     14.78431775	      0.58376307	     -4.63600951	     -1.72699562	      2.36449386
      3.34000000	      0.91740830	      2.81038191	     92.86696429	      0.53451235	      0.92668718	     -0.46490835	      2.84453458	      3.90806049	     -6.93012099	    -13.52413163	     -0.52242860	   -179.30129569	      8.35924874	     -6.72586116	     -2.79417702	    -22.69454556	     13.14817382	      0.58921924	     -4.48769426	     -1.53081000	      2.16439083
